<mxfile host="app.diagrams.net" modified="2023-10-13T02:12:35.531Z" agent="Mozilla/5.0 (Windows NT 10.0; Win64; x64) AppleWebKit/537.36 (KHTML, like Gecko) Chrome/117.0.0.0 Safari/537.36 Edg/117.0.2045.60" etag="dTM9Dhu1F5ONtUMKkyUo" version="22.0.4" type="device">
  <diagram name="PÃ¡gina-1" id="k-my1fSbHZpxVF3dFcDk">
    <mxGraphModel dx="1042" dy="569" grid="1" gridSize="10" guides="1" tooltips="1" connect="1" arrows="1" fold="1" page="1" pageScale="1" pageWidth="827" pageHeight="1169" math="0" shadow="0">
      <root>
        <mxCell id="0" />
        <mxCell id="1" parent="0" />
        <mxCell id="bySlzVs8Dvu7mFVVkZca-11" style="edgeStyle=orthogonalEdgeStyle;rounded=0;orthogonalLoop=1;jettySize=auto;html=1;exitX=0.5;exitY=1;exitDx=0;exitDy=0;entryX=0.5;entryY=0;entryDx=0;entryDy=0;" edge="1" parent="1" source="bySlzVs8Dvu7mFVVkZca-1" target="bySlzVs8Dvu7mFVVkZca-2">
          <mxGeometry relative="1" as="geometry" />
        </mxCell>
        <mxCell id="bySlzVs8Dvu7mFVVkZca-1" value="inicio" style="ellipse;whiteSpace=wrap;html=1;" vertex="1" parent="1">
          <mxGeometry x="344" y="20" width="120" height="80" as="geometry" />
        </mxCell>
        <mxCell id="bySlzVs8Dvu7mFVVkZca-9" style="edgeStyle=orthogonalEdgeStyle;rounded=0;orthogonalLoop=1;jettySize=auto;html=1;exitX=1;exitY=0.5;exitDx=0;exitDy=0;entryX=1;entryY=0.5;entryDx=0;entryDy=0;" edge="1" parent="1" source="bySlzVs8Dvu7mFVVkZca-2" target="bySlzVs8Dvu7mFVVkZca-3">
          <mxGeometry relative="1" as="geometry" />
        </mxCell>
        <mxCell id="bySlzVs8Dvu7mFVVkZca-2" value="obter valor do input" style="rounded=0;whiteSpace=wrap;html=1;" vertex="1" parent="1">
          <mxGeometry x="344" y="120" width="120" height="60" as="geometry" />
        </mxCell>
        <mxCell id="bySlzVs8Dvu7mFVVkZca-10" style="edgeStyle=orthogonalEdgeStyle;rounded=0;orthogonalLoop=1;jettySize=auto;html=1;exitX=0.5;exitY=1;exitDx=0;exitDy=0;entryX=0.5;entryY=0;entryDx=0;entryDy=0;" edge="1" parent="1" source="bySlzVs8Dvu7mFVVkZca-3" target="bySlzVs8Dvu7mFVVkZca-7">
          <mxGeometry relative="1" as="geometry" />
        </mxCell>
        <mxCell id="bySlzVs8Dvu7mFVVkZca-3" value="iniciar contador de 1 a 10" style="rounded=0;whiteSpace=wrap;html=1;" vertex="1" parent="1">
          <mxGeometry x="344" y="210" width="120" height="60" as="geometry" />
        </mxCell>
        <mxCell id="bySlzVs8Dvu7mFVVkZca-14" style="edgeStyle=orthogonalEdgeStyle;rounded=0;orthogonalLoop=1;jettySize=auto;html=1;exitX=0.5;exitY=1;exitDx=0;exitDy=0;entryX=0.5;entryY=0;entryDx=0;entryDy=0;" edge="1" parent="1" source="bySlzVs8Dvu7mFVVkZca-5" target="bySlzVs8Dvu7mFVVkZca-13">
          <mxGeometry relative="1" as="geometry" />
        </mxCell>
        <mxCell id="bySlzVs8Dvu7mFVVkZca-5" value="mostrar resultado" style="rounded=0;whiteSpace=wrap;html=1;" vertex="1" parent="1">
          <mxGeometry x="344" y="390" width="120" height="60" as="geometry" />
        </mxCell>
        <mxCell id="bySlzVs8Dvu7mFVVkZca-8" style="edgeStyle=orthogonalEdgeStyle;rounded=0;orthogonalLoop=1;jettySize=auto;html=1;exitX=0;exitY=0.5;exitDx=0;exitDy=0;entryX=0;entryY=0.5;entryDx=0;entryDy=0;" edge="1" parent="1" source="bySlzVs8Dvu7mFVVkZca-7" target="bySlzVs8Dvu7mFVVkZca-2">
          <mxGeometry relative="1" as="geometry" />
        </mxCell>
        <mxCell id="bySlzVs8Dvu7mFVVkZca-12" style="edgeStyle=orthogonalEdgeStyle;rounded=0;orthogonalLoop=1;jettySize=auto;html=1;exitX=0.5;exitY=1;exitDx=0;exitDy=0;" edge="1" parent="1" source="bySlzVs8Dvu7mFVVkZca-7" target="bySlzVs8Dvu7mFVVkZca-5">
          <mxGeometry relative="1" as="geometry" />
        </mxCell>
        <mxCell id="bySlzVs8Dvu7mFVVkZca-7" value="multiplicar valor digitado por cada numero contado" style="rhombus;whiteSpace=wrap;html=1;" vertex="1" parent="1">
          <mxGeometry x="351" y="290" width="106" height="80" as="geometry" />
        </mxCell>
        <mxCell id="bySlzVs8Dvu7mFVVkZca-13" value="fim" style="ellipse;whiteSpace=wrap;html=1;" vertex="1" parent="1">
          <mxGeometry x="344" y="470" width="120" height="80" as="geometry" />
        </mxCell>
        <mxCell id="bySlzVs8Dvu7mFVVkZca-15" value="10x" style="text;html=1;align=center;verticalAlign=middle;resizable=0;points=[];autosize=1;strokeColor=none;fillColor=none;" vertex="1" parent="1">
          <mxGeometry x="320" y="300" width="40" height="30" as="geometry" />
        </mxCell>
      </root>
    </mxGraphModel>
  </diagram>
</mxfile>
